<svg id="SvgjsSvg1000" xmlns="http://www.w3.org/2000/svg" version="1.1" xmlns:xlink="http://www.w3.org/1999/xlink" xmlns:svgjs="http://svgjs.com/svgjs" width="18" height="18" viewBox="0 0 18 18"><title>Эллипс 1</title><desc>Created with Avocode.</desc><defs id="SvgjsDefs1001"><clipPath id="SvgjsClipPath1009"><path id="SvgjsPath1008" d="M86 671C90.9706 671 95 675.029 95 680C95 684.971 90.9706 689 86 689C81.0294 689 77 684.971 77 680C77 675.029 81.0294 671 86 671Z " fill="#ffffff"></path></clipPath></defs><path id="SvgjsPath1007" d="M86 671C90.9706 671 95 675.029 95 680C95 684.971 90.9706 689 86 689C81.0294 689 77 684.971 77 680C77 675.029 81.0294 671 86 671Z " fill-opacity="0" fill="#ffffff" stroke-dasharray="0" stroke-linejoin="miter" stroke-linecap="butt" stroke-opacity="1" stroke="#ffffff" stroke-miterlimit="50" stroke-width="4" clip-path="url(&quot;#SvgjsClipPath1009&quot;)" transform="matrix(1,0,0,1,-77,-671)"></path><path id="SvgjsPath1010" d="M84 675.99L89.9897 680L84 684.01Z " fill="#ffffff" fill-opacity="1" transform="matrix(1,0,0,1,-77,-671)"></path></svg>